<svg width="409" height="354" viewBox="0 0 409 354" fill="none" xmlns="http://www.w3.org/2000/svg">
<g id="bear" filter="url(#filter0_d_446_4141)">
<path d="M393.478 64.6924C403.478 59.6924 405.978 27.1924 401.978 25.1914C397.937 26.9404 395.312 27.8705 389.478 28.6914C376.691 27.6334 367.689 25.8999 362.978 23.1914C358.267 20.4828 353.978 17.3576 349.978 14.6914C345.478 11.6923 306.478 11.1923 304.978 14.6914L303.478 17.6925C293.978 -1.30742 280.978 -1.34688 274.978 4.1921C268.479 10.1921 267.478 22.6914 278.978 32.1914C263.478 50.1914 271.978 76.6913 293.978 96.1913C270.978 87.1913 259.478 67.6914 266.478 36.6914C254.203 51.3407 252.495 59.8848 250.478 75.1913C248.696 70.0187 248.451 65.8644 248.478 57.6914C217.478 81.1914 204.687 102.906 195.978 149.191C191.134 115.032 198.161 101.798 213.978 80.1913L184.978 93.1913C96.9783 78.1913 3.05194 131.191 25.978 232.191C27.1067 237.164 24.9783 245.691 21.978 249.691H26.978C21.978 257.191 20.4783 269.191 13.978 274.691H19.478L8.97796 294.191H12.478C2.97826 307.191 -0.0215321 327.691 18.978 345.191H75.478C75.478 339.191 68.2372 326.765 50.978 324.691C50.978 297.191 113.478 267.691 110.978 179.691C127.978 207.691 120.478 260.691 71.978 303.691C77.0699 321.884 81.6698 330.799 91.978 345.191H162.478C162.478 340.191 155.478 333.191 149.978 331.691L131.978 327.691C125.978 326.691 125.978 320.691 125.978 314.191L130.478 267.691C162.516 269.603 188.87 264.691 186.978 259.191C178.238 233.783 185.933 210.47 189.978 211.191C189.978 211.191 184.978 285.191 230.478 345.191H299.978C294.478 322.191 277.978 324.191 276.978 321.191C268.978 297.191 287.361 263.191 289.978 255.691C296.606 236.691 313.478 215.191 322.478 172.191C310.849 184.581 304.633 189.693 293.978 196.191C289.059 199.191 322.753 161.718 338.478 138.191C354.478 102.192 347.978 84.1924 393.478 64.6924Z" fill="white"/>
<path d="M393.478 64.6924C403.478 59.6924 405.978 27.1924 401.978 25.1914C397.937 26.9404 395.312 27.8705 389.478 28.6914C376.691 27.6334 367.689 25.8999 362.978 23.1914C358.267 20.4828 353.978 17.3576 349.978 14.6914C345.478 11.6923 306.478 11.1923 304.978 14.6914L303.478 17.6925C293.978 -1.30742 280.978 -1.34688 274.978 4.1921C268.479 10.1921 267.478 22.6914 278.978 32.1914C263.478 50.1914 271.978 76.6913 293.978 96.1913C270.978 87.1913 259.478 67.6914 266.478 36.6914C254.203 51.3407 252.495 59.8848 250.478 75.1913C248.696 70.0187 248.451 65.8644 248.478 57.6914C217.478 81.1914 204.687 102.906 195.978 149.191C191.134 115.032 198.161 101.798 213.978 80.1913L184.978 93.1913C96.9783 78.1913 3.05194 131.191 25.978 232.191C27.1067 237.164 24.9783 245.691 21.978 249.691H26.978C21.978 257.191 20.4783 269.191 13.978 274.691H19.478L8.97796 294.191H12.478C2.97826 307.191 -0.0215321 327.691 18.978 345.191H75.478C75.478 339.191 68.2372 326.765 50.978 324.691C50.978 297.191 113.478 267.691 110.978 179.691C127.978 207.691 120.478 260.691 71.978 303.691C77.0699 321.884 81.6698 330.799 91.978 345.191H162.478C162.478 340.191 155.478 333.191 149.978 331.691L131.978 327.691C125.978 326.691 125.978 320.691 125.978 314.191L130.478 267.691C162.516 269.603 188.87 264.691 186.978 259.191C178.238 233.783 185.933 210.47 189.978 211.191C189.978 211.191 184.978 285.191 230.478 345.191H299.978C294.478 322.191 277.978 324.191 276.978 321.191C268.978 297.191 287.361 263.191 289.978 255.691C296.606 236.691 313.478 215.191 322.478 172.191C310.849 184.581 304.633 189.693 293.978 196.191C289.059 199.191 322.753 161.718 338.478 138.191C354.478 102.192 347.978 84.1924 393.478 64.6924Z" stroke="white"/>
</g>
<defs>
<filter id="filter0_d_446_4141" x="0.5" y="0.5" width="407.796" height="353.191" filterUnits="userSpaceOnUse" color-interpolation-filters="sRGB">
<feFlood flood-opacity="0" result="BackgroundImageFix"/>
<feColorMatrix in="SourceAlpha" type="matrix" values="0 0 0 0 0 0 0 0 0 0 0 0 0 0 0 0 0 0 127 0" result="hardAlpha"/>
<feOffset dy="4"/>
<feGaussianBlur stdDeviation="2"/>
<feComposite in2="hardAlpha" operator="out"/>
<feColorMatrix type="matrix" values="0 0 0 0 0 0 0 0 0 0 0 0 0 0 0 0 0 0 0.25 0"/>
<feBlend mode="normal" in2="BackgroundImageFix" result="effect1_dropShadow_446_4141"/>
<feBlend mode="normal" in="SourceGraphic" in2="effect1_dropShadow_446_4141" result="shape"/>
</filter>
</defs>
</svg>
